<svg xmlns="http://www.w3.org/2000/svg" xmlns:xlink="http://www.w3.org/1999/xlink" width="500" zoomAndPan="magnify" viewBox="0 0 375 374.999991" height="500" preserveAspectRatio="xMidYMid meet" version="1.0"><defs><g/></defs><g fill="#fe8431" fill-opacity="1"><g transform="translate(14.503439, 210.613652)"><g><path d="M 2.9375 0 L 7.394531 0 L 19.433594 -54.226562 L 20.003906 -54.226562 L 39.722656 -9.195312 L 41.523438 -9.195312 L 61.144531 -54.226562 L 61.808594 -54.226562 L 73.847656 0 L 78.304688 0 L 63.800781 -67.402344 L 61.808594 -67.402344 L 40.953125 -19.246094 L 40.289062 -19.246094 L 19.433594 -67.402344 L 17.441406 -67.402344 Z M 2.9375 0 "/></g></g></g><g fill="#545454" fill-opacity="1"><g transform="translate(95.746979, 210.613652)"><g><path d="M 30.808594 1.136719 C 40.480469 1.136719 48.820312 -3.792969 53.277344 -11.851562 L 53.847656 -11.851562 L 53.847656 0 L 57.921875 0 L 57.921875 -50.625 L 55.742188 -50.625 L 54.226562 -38.015625 L 53.65625 -38.015625 C 49.390625 -46.453125 40.765625 -51.664062 30.808594 -51.664062 C 16.402344 -51.664062 4.929688 -40.859375 4.929688 -25.3125 C 4.929688 -9.667969 16.402344 1.136719 30.808594 1.136719 Z M 31.378906 -2.65625 C 18.960938 -2.65625 9.007812 -11.945312 9.007812 -25.3125 C 9.007812 -38.679688 19.054688 -47.875 31.378906 -47.875 C 43.796875 -47.875 53.75 -38.679688 53.75 -25.3125 C 53.75 -11.945312 43.796875 -2.65625 31.378906 -2.65625 Z M 31.378906 -2.65625 "/></g></g></g><g fill="#545454" fill-opacity="1"><g transform="translate(161.064144, 210.613652)"><g><path d="M 7.394531 0 L 11.472656 0 L 11.472656 -16.875 L 20.761719 -26.355469 L 21.234375 -26.355469 L 43.132812 0 L 47.683594 0 L 23.605469 -29.484375 L 44.460938 -50.625 L 39.53125 -50.625 L 12.039062 -22.5625 L 11.472656 -22.5625 L 11.472656 -73.847656 L 7.394531 -73.847656 Z M 7.394531 0 "/></g></g></g><g fill="#545454" fill-opacity="1"><g transform="translate(210.170524, 210.613652)"><g><path d="M 32.136719 1.136719 C 40.859375 1.136719 49.203125 -1.707031 54.984375 -8.246094 L 52.328125 -11.375 C 47.398438 -5.5 39.910156 -2.65625 32.136719 -2.65625 C 18.675781 -2.65625 9.667969 -11.089844 8.910156 -23.511719 L 57.636719 -23.511719 L 57.636719 -25.3125 C 57.636719 -40.859375 45.976562 -51.664062 31.1875 -51.664062 C 16.496094 -51.664062 4.738281 -40.859375 4.738281 -25.3125 C 4.738281 -9.667969 15.640625 1.136719 32.136719 1.136719 Z M 8.910156 -27.207031 C 9.859375 -39.53125 19.433594 -47.875 31.1875 -47.875 C 43.039062 -47.875 52.613281 -39.53125 53.46875 -27.207031 Z M 8.910156 -27.207031 "/></g></g></g><g fill="#545454" fill-opacity="1"><g transform="translate(272.548884, 210.613652)"><g><path d="M 7.394531 0 L 11.472656 0 L 11.472656 -27.964844 C 11.851562 -40.003906 18.296875 -47.777344 29.671875 -47.777344 C 31.851562 -47.777344 32.707031 -47.683594 34.507812 -47.117188 L 35.074219 -51.097656 C 33.273438 -51.476562 32.136719 -51.664062 29.671875 -51.664062 C 20.761719 -51.664062 14.695312 -47.210938 11.660156 -39.910156 L 11.089844 -39.910156 L 9.765625 -50.625 L 7.394531 -50.625 Z M 7.394531 0 "/></g></g></g><g fill="#545454" fill-opacity="1"><g transform="translate(309.331255, 210.613652)"><g><path d="M 23.511719 1.136719 C 33.84375 1.136719 40.480469 -4.550781 40.480469 -12.132812 C 40.480469 -19.90625 36.023438 -24.835938 23.699219 -27.492188 C 12.324219 -29.863281 9.574219 -33.75 9.574219 -38.867188 C 9.574219 -43.890625 14.976562 -48.160156 23.132812 -48.160156 C 29.199219 -48.160156 33.84375 -46.832031 37.636719 -45.21875 L 37.636719 -49.011719 C 33.558594 -50.527344 29.105469 -51.664062 23.226562 -51.664062 C 12.609375 -51.664062 5.5 -45.789062 5.5 -38.867188 C 5.5 -31.472656 10.046875 -26.542969 22.183594 -23.984375 C 33.273438 -21.710938 36.402344 -18.011719 36.402344 -12.039062 C 36.402344 -6.351562 31.378906 -2.371094 23.320312 -2.371094 C 15.925781 -2.371094 9.480469 -5.214844 5.023438 -8.722656 L 3.414062 -5.402344 C 8.4375 -1.707031 15.546875 1.136719 23.511719 1.136719 Z M 23.511719 1.136719 "/></g></g></g><g fill="#cb6c83" fill-opacity="1"><g transform="translate(206.303708, 238.64641)"><g><path d="M 8.359375 -0.484375 L 7.546875 0.359375 L 2.109375 -5.0625 L 7.546875 -10.5 L 8.359375 -9.65625 L 3.78125 -5.0625 Z M 8.359375 -0.484375 "/></g></g><g transform="translate(218.163348, 238.64641)"><g><path d="M 9.59375 -13.8125 L 1.46875 2.546875 L 0.4375 2 L 8.5625 -14.359375 Z M 9.59375 -13.8125 "/></g></g><g transform="translate(230.022989, 238.64641)"><g><path d="M 10.34375 -6.90625 C 10.34375 -5.976562 10.242188 -5.09375 10.046875 -4.25 C 9.847656 -3.414062 9.535156 -2.679688 9.109375 -2.046875 C 8.679688 -1.421875 8.128906 -0.921875 7.453125 -0.546875 C 6.785156 -0.179688 5.972656 0 5.015625 0 L 0.515625 0 L 0.515625 -13.84375 L 5.015625 -13.84375 C 5.953125 -13.84375 6.757812 -13.648438 7.4375 -13.265625 C 8.113281 -12.890625 8.664062 -12.382812 9.09375 -11.75 C 9.519531 -11.113281 9.832031 -10.378906 10.03125 -9.546875 C 10.238281 -8.710938 10.34375 -7.832031 10.34375 -6.90625 Z M 8.890625 -6.90625 C 8.890625 -8.71875 8.546875 -10.117188 7.859375 -11.109375 C 7.179688 -12.097656 6.234375 -12.59375 5.015625 -12.59375 L 1.96875 -12.59375 L 1.96875 -1.234375 L 5.015625 -1.234375 C 6.234375 -1.234375 7.179688 -1.722656 7.859375 -2.703125 C 8.546875 -3.691406 8.890625 -5.09375 8.890625 -6.90625 Z M 8.890625 -6.90625 "/></g></g><g transform="translate(241.882629, 238.64641)"><g><path d="M 5.921875 -11.859375 L 3.953125 -11.859375 L 3.953125 -13.84375 L 5.921875 -13.84375 Z M 7.90625 0 L 1.96875 0 L 1.96875 -1.234375 L 4.203125 -1.234375 L 4.203125 -8.640625 L 1.96875 -8.640625 L 1.96875 -9.890625 L 5.671875 -9.890625 L 5.671875 -1.234375 L 7.90625 -1.234375 Z M 7.90625 0 "/></g></g><g transform="translate(253.742269, 238.64641)"><g><path d="M 9.625 -2.734375 C 9.625 -2.148438 9.476562 -1.664062 9.1875 -1.28125 C 8.894531 -0.90625 8.519531 -0.601562 8.0625 -0.375 C 7.601562 -0.15625 7.09375 0 6.53125 0.09375 C 5.96875 0.195312 5.421875 0.25 4.890625 0.25 C 3.992188 0.25 3.097656 0.117188 2.203125 -0.140625 C 1.316406 -0.410156 0.546875 -0.753906 -0.109375 -1.171875 L 0.546875 -2.421875 C 1.273438 -1.960938 1.988281 -1.609375 2.6875 -1.359375 C 3.394531 -1.117188 4.128906 -1 4.890625 -1 C 7.078125 -1 8.171875 -1.5625 8.171875 -2.6875 C 8.171875 -2.96875 8.078125 -3.191406 7.890625 -3.359375 C 7.710938 -3.535156 7.472656 -3.675781 7.171875 -3.78125 C 6.867188 -3.894531 6.519531 -3.984375 6.125 -4.046875 C 5.726562 -4.109375 5.316406 -4.171875 4.890625 -4.234375 C 4.335938 -4.304688 3.785156 -4.394531 3.234375 -4.5 C 2.691406 -4.613281 2.195312 -4.773438 1.75 -4.984375 C 1.300781 -5.191406 0.941406 -5.472656 0.671875 -5.828125 C 0.398438 -6.179688 0.265625 -6.648438 0.265625 -7.234375 C 0.265625 -7.722656 0.390625 -8.148438 0.640625 -8.515625 C 0.890625 -8.878906 1.222656 -9.179688 1.640625 -9.421875 C 2.066406 -9.660156 2.5625 -9.832031 3.125 -9.9375 C 3.695312 -10.050781 4.285156 -10.109375 4.890625 -10.109375 C 5.753906 -10.109375 6.53125 -10.007812 7.21875 -9.8125 C 7.90625 -9.613281 8.523438 -9.328125 9.078125 -8.953125 L 8.5 -7.8125 C 7.925781 -8.207031 7.347656 -8.484375 6.765625 -8.640625 C 6.191406 -8.804688 5.566406 -8.890625 4.890625 -8.890625 C 4.585938 -8.890625 4.25 -8.863281 3.875 -8.8125 C 3.5 -8.757812 3.148438 -8.664062 2.828125 -8.53125 C 2.515625 -8.394531 2.25 -8.222656 2.03125 -8.015625 C 1.820312 -7.804688 1.71875 -7.546875 1.71875 -7.234375 C 1.71875 -6.953125 1.804688 -6.726562 1.984375 -6.5625 C 2.171875 -6.40625 2.414062 -6.269531 2.71875 -6.15625 C 3.019531 -6.039062 3.363281 -5.953125 3.75 -5.890625 C 4.144531 -5.828125 4.5625 -5.769531 5 -5.71875 C 5.53125 -5.632812 6.066406 -5.539062 6.609375 -5.4375 C 7.160156 -5.332031 7.660156 -5.175781 8.109375 -4.96875 C 8.566406 -4.769531 8.929688 -4.492188 9.203125 -4.140625 C 9.484375 -3.785156 9.625 -3.316406 9.625 -2.734375 Z M 9.625 -2.734375 "/></g></g><g transform="translate(265.60191, 238.64641)"><g><path d="M 1.453125 -4.4375 C 1.554688 -3.382812 1.9375 -2.546875 2.59375 -1.921875 C 3.25 -1.304688 4.109375 -1 5.171875 -1 C 5.910156 -1 6.566406 -1.148438 7.140625 -1.453125 C 7.722656 -1.753906 8.160156 -2.132812 8.453125 -2.59375 L 9.46875 -1.890625 C 8.976562 -1.191406 8.390625 -0.660156 7.703125 -0.296875 C 7.015625 0.0664062 6.171875 0.25 5.171875 0.25 C 4.398438 0.25 3.695312 0.125 3.0625 -0.125 C 2.425781 -0.382812 1.875 -0.742188 1.40625 -1.203125 C 0.945312 -1.660156 0.585938 -2.203125 0.328125 -2.828125 C 0.078125 -3.460938 -0.046875 -4.164062 -0.046875 -4.9375 C -0.046875 -5.6875 0.0664062 -6.375 0.296875 -7 C 0.523438 -7.632812 0.859375 -8.179688 1.296875 -8.640625 C 1.734375 -9.109375 2.257812 -9.46875 2.875 -9.71875 C 3.5 -9.976562 4.195312 -10.109375 4.96875 -10.109375 C 5.8125 -10.109375 6.546875 -9.96875 7.171875 -9.6875 C 7.804688 -9.40625 8.332031 -9.015625 8.75 -8.515625 C 9.175781 -8.015625 9.488281 -7.414062 9.6875 -6.71875 C 9.882812 -6.03125 9.984375 -5.269531 9.984375 -4.4375 Z M 8.453125 -5.671875 C 8.285156 -6.753906 7.890625 -7.5625 7.265625 -8.09375 C 6.648438 -8.625 5.882812 -8.890625 4.96875 -8.890625 C 4.507812 -8.890625 4.082031 -8.8125 3.6875 -8.65625 C 3.289062 -8.507812 2.9375 -8.289062 2.625 -8 C 2.320312 -7.71875 2.066406 -7.378906 1.859375 -6.984375 C 1.660156 -6.585938 1.53125 -6.148438 1.46875 -5.671875 Z M 8.453125 -5.671875 "/></g></g><g transform="translate(277.46155, 238.64641)"><g><path d="M 9.359375 0 L 7.90625 0 L 7.90625 -6.09375 C 7.90625 -6.976562 7.710938 -7.664062 7.328125 -8.15625 C 6.941406 -8.644531 6.320312 -8.890625 5.46875 -8.890625 C 4.9375 -8.890625 4.453125 -8.765625 4.015625 -8.515625 C 3.578125 -8.265625 3.207031 -7.929688 2.90625 -7.515625 C 2.601562 -7.109375 2.367188 -6.632812 2.203125 -6.09375 C 2.046875 -5.5625 1.96875 -5.007812 1.96875 -4.4375 L 1.96875 0 L 0.515625 0 L 0.515625 -9.890625 L 1.96875 -9.890625 L 1.96875 -7.40625 C 2.664062 -9.207031 3.914062 -10.109375 5.71875 -10.109375 C 8.144531 -10.109375 9.359375 -8.769531 9.359375 -6.09375 Z M 8.96875 -13.03125 C 8.332031 -11.914062 7.460938 -11.359375 6.359375 -11.359375 C 5.960938 -11.359375 5.632812 -11.421875 5.375 -11.546875 C 5.125 -11.679688 4.898438 -11.820312 4.703125 -11.96875 C 4.503906 -12.125 4.3125 -12.265625 4.125 -12.390625 C 3.9375 -12.523438 3.707031 -12.59375 3.4375 -12.59375 C 2.707031 -12.59375 2.117188 -12.203125 1.671875 -11.421875 L 0.828125 -11.921875 C 1.472656 -13.023438 2.34375 -13.578125 3.4375 -13.578125 C 3.84375 -13.578125 4.171875 -13.507812 4.421875 -13.375 C 4.671875 -13.25 4.894531 -13.109375 5.09375 -12.953125 C 5.289062 -12.796875 5.484375 -12.648438 5.671875 -12.515625 C 5.859375 -12.390625 6.085938 -12.328125 6.359375 -12.328125 C 7.078125 -12.328125 7.664062 -12.726562 8.125 -13.53125 Z M 8.96875 -13.03125 "/></g></g><g transform="translate(289.321191, 238.64641)"><g><path d="M 10.140625 -4.90625 C 10.140625 -4.132812 10.015625 -3.429688 9.765625 -2.796875 C 9.523438 -2.171875 9.175781 -1.632812 8.71875 -1.1875 C 8.257812 -0.738281 7.710938 -0.382812 7.078125 -0.125 C 6.441406 0.125 5.734375 0.25 4.953125 0.25 C 4.179688 0.25 3.476562 0.125 2.84375 -0.125 C 2.207031 -0.382812 1.660156 -0.738281 1.203125 -1.1875 C 0.742188 -1.632812 0.390625 -2.171875 0.140625 -2.796875 C -0.0976562 -3.429688 -0.21875 -4.132812 -0.21875 -4.90625 C -0.21875 -5.65625 -0.0976562 -6.351562 0.140625 -7 C 0.390625 -7.644531 0.742188 -8.195312 1.203125 -8.65625 C 1.660156 -9.113281 2.207031 -9.46875 2.84375 -9.71875 C 3.476562 -9.976562 4.179688 -10.109375 4.953125 -10.109375 C 5.734375 -10.109375 6.441406 -9.976562 7.078125 -9.71875 C 7.710938 -9.46875 8.257812 -9.113281 8.71875 -8.65625 C 9.175781 -8.195312 9.523438 -7.644531 9.765625 -7 C 10.015625 -6.351562 10.140625 -5.65625 10.140625 -4.90625 Z M 8.6875 -4.90625 C 8.6875 -5.476562 8.601562 -6 8.4375 -6.46875 C 8.269531 -6.945312 8.023438 -7.363281 7.703125 -7.71875 C 7.378906 -8.082031 6.984375 -8.367188 6.515625 -8.578125 C 6.054688 -8.785156 5.535156 -8.890625 4.953125 -8.890625 C 4.367188 -8.890625 3.84375 -8.785156 3.375 -8.578125 C 2.914062 -8.367188 2.523438 -8.082031 2.203125 -7.71875 C 1.890625 -7.363281 1.648438 -6.945312 1.484375 -6.46875 C 1.316406 -6 1.234375 -5.476562 1.234375 -4.90625 C 1.234375 -4.34375 1.316406 -3.820312 1.484375 -3.34375 C 1.648438 -2.863281 1.890625 -2.453125 2.203125 -2.109375 C 2.523438 -1.765625 2.914062 -1.492188 3.375 -1.296875 C 3.84375 -1.097656 4.367188 -1 4.953125 -1 C 5.535156 -1 6.054688 -1.097656 6.515625 -1.296875 C 6.984375 -1.492188 7.378906 -1.765625 7.703125 -2.109375 C 8.023438 -2.453125 8.269531 -2.863281 8.4375 -3.34375 C 8.601562 -3.820312 8.6875 -4.34375 8.6875 -4.90625 Z M 8.6875 -4.90625 "/></g></g><g transform="translate(301.180831, 238.64641)"><g/></g><g transform="translate(313.040472, 238.64641)"><g><path d="M 10.21875 -9.890625 L 8.203125 0 L 6.515625 0 L 4.9375 -7.25 L 3.4375 0 L 1.734375 0 L -0.28125 -9.890625 L 1.265625 -9.890625 L 2.6875 -1.96875 L 4.234375 -9.890625 L 5.671875 -9.890625 L 7.25 -1.96875 L 8.6875 -9.890625 Z M 10.21875 -9.890625 "/></g></g><g transform="translate(324.900112, 238.64641)"><g><path d="M 1.453125 -4.4375 C 1.554688 -3.382812 1.9375 -2.546875 2.59375 -1.921875 C 3.25 -1.304688 4.109375 -1 5.171875 -1 C 5.910156 -1 6.566406 -1.148438 7.140625 -1.453125 C 7.722656 -1.753906 8.160156 -2.132812 8.453125 -2.59375 L 9.46875 -1.890625 C 8.976562 -1.191406 8.390625 -0.660156 7.703125 -0.296875 C 7.015625 0.0664062 6.171875 0.25 5.171875 0.25 C 4.398438 0.25 3.695312 0.125 3.0625 -0.125 C 2.425781 -0.382812 1.875 -0.742188 1.40625 -1.203125 C 0.945312 -1.660156 0.585938 -2.203125 0.328125 -2.828125 C 0.078125 -3.460938 -0.046875 -4.164062 -0.046875 -4.9375 C -0.046875 -5.6875 0.0664062 -6.375 0.296875 -7 C 0.523438 -7.632812 0.859375 -8.179688 1.296875 -8.640625 C 1.734375 -9.109375 2.257812 -9.46875 2.875 -9.71875 C 3.5 -9.976562 4.195312 -10.109375 4.96875 -10.109375 C 5.8125 -10.109375 6.546875 -9.96875 7.171875 -9.6875 C 7.804688 -9.40625 8.332031 -9.015625 8.75 -8.515625 C 9.175781 -8.015625 9.488281 -7.414062 9.6875 -6.71875 C 9.882812 -6.03125 9.984375 -5.269531 9.984375 -4.4375 Z M 8.453125 -5.671875 C 8.285156 -6.753906 7.890625 -7.5625 7.265625 -8.09375 C 6.648438 -8.625 5.882812 -8.890625 4.96875 -8.890625 C 4.507812 -8.890625 4.082031 -8.8125 3.6875 -8.65625 C 3.289062 -8.507812 2.9375 -8.289062 2.625 -8 C 2.320312 -7.71875 2.066406 -7.378906 1.859375 -6.984375 C 1.660156 -6.585938 1.53125 -6.148438 1.46875 -5.671875 Z M 8.453125 -5.671875 "/></g></g><g transform="translate(336.759752, 238.64641)"><g><path d="M 9.890625 -4.9375 C 9.890625 -4.175781 9.769531 -3.476562 9.53125 -2.84375 C 9.300781 -2.207031 8.96875 -1.660156 8.53125 -1.203125 C 8.09375 -0.742188 7.566406 -0.382812 6.953125 -0.125 C 6.335938 0.125 5.648438 0.25 4.890625 0.25 C 4.347656 0.25 3.832031 0.15625 3.34375 -0.03125 C 2.851562 -0.226562 2.394531 -0.515625 1.96875 -0.890625 L 1.96875 0 L 0.515625 0 L 0.515625 -13.84375 L 1.96875 -13.84375 L 1.96875 -8.96875 C 2.394531 -9.332031 2.851562 -9.613281 3.34375 -9.8125 C 3.832031 -10.007812 4.347656 -10.109375 4.890625 -10.109375 C 5.648438 -10.109375 6.335938 -9.976562 6.953125 -9.71875 C 7.566406 -9.46875 8.09375 -9.113281 8.53125 -8.65625 C 8.96875 -8.195312 9.300781 -7.648438 9.53125 -7.015625 C 9.769531 -6.378906 9.890625 -5.6875 9.890625 -4.9375 Z M 8.40625 -4.9375 C 8.40625 -5.5 8.332031 -6.019531 8.1875 -6.5 C 8.039062 -6.976562 7.816406 -7.390625 7.515625 -7.734375 C 7.222656 -8.085938 6.859375 -8.367188 6.421875 -8.578125 C 5.984375 -8.785156 5.472656 -8.890625 4.890625 -8.890625 C 3.773438 -8.890625 2.800781 -8.445312 1.96875 -7.5625 L 1.96875 -2.28125 C 2.394531 -1.820312 2.847656 -1.492188 3.328125 -1.296875 C 3.816406 -1.097656 4.335938 -1 4.890625 -1 C 5.472656 -1 5.976562 -1.097656 6.40625 -1.296875 C 6.84375 -1.503906 7.207031 -1.785156 7.5 -2.140625 C 7.800781 -2.492188 8.023438 -2.910156 8.171875 -3.390625 C 8.328125 -3.867188 8.40625 -4.382812 8.40625 -4.9375 Z M 8.40625 -4.9375 "/></g></g><g transform="translate(348.619393, 238.64641)"><g><path d="M 7.765625 -5.0625 L 2.34375 0.359375 L 1.515625 -0.484375 L 6.09375 -5.0625 L 1.515625 -9.65625 L 2.34375 -10.5 Z M 7.765625 -5.0625 "/></g></g></g></svg>